<svg version="1.1" xmlns="http://www.w3.org/2000/svg" viewBox="0 0 802.5455322265625 692.7272491455078" width="802.5455322265625" height="692.7272491455078">
  <!-- svg-source:excalidraw -->
  
  <defs>
    <style class="style-fonts">
      @font-face {
        font-family: "Virgil";
        src: url("https://excalidraw.com/Virgil.woff2");
      }
      @font-face {
        font-family: "Cascadia";
        src: url("https://excalidraw.com/Cascadia.woff2");
      }
    </style>
  </defs>
  <rect x="0" y="0" width="802.5455322265625" height="692.7272491455078" fill="#ffffff"></rect><g stroke-linecap="round"><g transform="translate(173.56620979850572 83.09083557128903) rotate(0 70.60971430885286 -0.5147707070316443)"><path d="M0 -0.23 C23.24 -0.02, 116.83 0.55, 140.47 0.32 M-1.45 -1.4 C22.07 -1.42, 118.88 -1.34, 142.67 -1.22" stroke="#000000" stroke-width="1" fill="none"></path></g><g transform="translate(173.56620979850572 83.09083557128903) rotate(0 70.60971430885286 -0.5147707070316443)"><path d="M114.07 7.35 C127.25 5.7, 134.96 0.45, 143.56 -2.95 M114.03 8.51 C124.95 5.93, 134.4 2.64, 142.97 -1.66" stroke="#000000" stroke-width="1" fill="none"></path></g><g transform="translate(173.56620979850572 83.09083557128903) rotate(0 70.60971430885286 -0.5147707070316443)"><path d="M114.12 -13.17 C127.12 -6.91, 134.81 -4.24, 143.56 -2.95 M114.08 -12.01 C125.12 -7.54, 134.55 -3.78, 142.97 -1.66" stroke="#000000" stroke-width="1" fill="none"></path></g></g><g stroke-linecap="round" transform="translate(10 10.727218627929688) rotate(0 81.27273559570312 78.3636474609375)"><path d="M0.51 -1.09 C37.58 0.57, 77.27 1.68, 162.04 1.5 M-0.76 -0.13 C47.54 0.62, 97.33 -0.01, 162.15 0.83 M164.17 -1.23 C161.93 42.07, 161.62 84.81, 160.68 158.39 M163.49 -0.99 C162.09 34.73, 162.73 68.75, 162.22 156.03 M162.2 156.47 C100.08 154.74, 34.18 155.9, -1.62 158.55 M162.99 155.86 C108.84 156.86, 53.67 155.76, -0.45 157.59 M0.6 155.84 C-0.77 104.13, -2.35 54.29, -0.71 0.86 M-0.81 155.85 C-1.15 116.88, -1.37 75.03, 0.01 -0.51" stroke="#000000" stroke-width="1" fill="none"></path></g><g transform="translate(42.00006103515625 80.99996948242188) rotate(0 53 12.5)"><text x="0" y="18" font-family="Virgil, Segoe UI Emoji" font-size="20px" fill="#000000" text-anchor="start" style="white-space: pre;" direction="ltr">File upload</text></g><g stroke-linecap="round" transform="translate(314.36370849609375 10) rotate(0 108.00003051757812 76.18180847167969)"><path d="M38.09 0 M38.09 0 C84.62 1.24, 132.33 -0.2, 177.91 0 M38.09 0 C71.15 -1.88, 104.23 -1.71, 177.91 0 M177.91 0 C201.67 1.94, 215.11 11.74, 216 38.09 M177.91 0 C202.95 0.66, 214.84 10.57, 216 38.09 M216 38.09 C216.96 66.43, 214.7 92.55, 216 114.27 M216 38.09 C216.69 53.67, 217.4 69.86, 216 114.27 M216 114.27 C214.66 139.64, 205.13 151.71, 177.91 152.36 M216 114.27 C215.7 139.77, 205.29 153.59, 177.91 152.36 M177.91 152.36 C140.4 151.34, 105.07 152.68, 38.09 152.36 M177.91 152.36 C133.62 152.01, 87.05 153.39, 38.09 152.36 M38.09 152.36 C12.31 152.36, 0.16 140.65, 0 114.27 M38.09 152.36 C14.03 153.16, -0.06 139.37, 0 114.27 M0 114.27 C-1.7 88.39, -0.36 67.17, 0 38.09 M0 114.27 C-0.22 89.32, -0.43 65.88, 0 38.09 M0 38.09 C0.66 11.06, 11.82 -1.57, 38.09 0 M0 38.09 C-1.04 10.96, 11.99 -0.65, 38.09 0" stroke="#000000" stroke-width="1" fill="none"></path></g><g transform="translate(356.90924072265625 73.72732543945312) rotate(0 68.5 12.5)"><text x="0" y="18" font-family="Virgil, Segoe UI Emoji" font-size="20px" fill="#000000" text-anchor="start" style="white-space: pre;" direction="ltr">Dirty storage</text></g><g stroke-linecap="round" transform="translate(178.45443725585938 525.2726745605469) rotate(0 108.00003051757812 76.18180847167969)"><path d="M38.09 0 M38.09 0 C92.25 2, 146.86 1.77, 177.91 0 M38.09 0 C86.79 -0.42, 136.59 -0.29, 177.91 0 M177.91 0 C205.09 -1.24, 217.2 14.37, 216 38.09 M177.91 0 C204.03 1.21, 217.8 12.53, 216 38.09 M216 38.09 C217.47 55.89, 214.88 76.02, 216 114.27 M216 38.09 C216.39 54.71, 214.44 70.98, 216 114.27 M216 114.27 C217.86 138.42, 205.23 154.15, 177.91 152.36 M216 114.27 C218.05 138.91, 204.89 154.24, 177.91 152.36 M177.91 152.36 C145.82 152.33, 112.76 152.2, 38.09 152.36 M177.91 152.36 C142.35 152.99, 108.25 154.1, 38.09 152.36 M38.09 152.36 C11.88 151.22, 0.47 141.39, 0 114.27 M38.09 152.36 C12.84 154.17, -2.16 137.84, 0 114.27 M0 114.27 C-0.06 87.6, 0.26 63.92, 0 38.09 M0 114.27 C-1.16 98.3, -1.12 83.25, 0 38.09 M0 38.09 C-0.98 12.24, 12.41 0.08, 38.09 0 M0 38.09 C0.8 12.69, 12.02 -0.5, 38.09 0" stroke="#000000" stroke-width="1" fill="none"></path></g><g transform="translate(216.63644409179688 586.0907897949219) rotate(0 70 12.5)"><text x="0" y="18" font-family="Virgil, Segoe UI Emoji" font-size="20px" fill="#000000" text-anchor="start" style="white-space: pre;" direction="ltr">Clean storage</text></g><g stroke-linecap="round" transform="translate(596.545654296875 274.7272644042969) rotate(0 97.99993896484375 83.09091186523438)"><path d="M53.52 9.06 C63.52 3.24, 77.78 0.23, 90.39 -0.46 C102.99 -1.16, 117.27 1.51, 129.16 4.9 C141.04 8.28, 152.26 12.89, 161.72 19.85 C171.17 26.81, 180.35 37.17, 185.89 46.66 C191.44 56.15, 194.13 66.45, 194.99 76.8 C195.84 87.15, 194.9 98.56, 191.04 108.77 C187.18 118.99, 180.09 130.01, 171.84 138.09 C163.6 146.17, 152.7 152.66, 141.57 157.27 C130.45 161.88, 117.35 165.03, 105.09 165.73 C92.83 166.44, 79.76 164.69, 68.01 161.53 C56.27 158.37, 44.33 153.55, 34.6 146.76 C24.86 139.97, 15.32 130.4, 9.61 120.78 C3.89 111.16, 1.13 99.54, 0.29 89.02 C-0.54 78.51, 0.71 67.82, 4.62 57.7 C8.52 47.58, 13.27 37.31, 23.74 28.31 C34.2 19.31, 58.07 7.79, 67.4 3.69 C76.73 -0.4, 79.46 2.45, 79.69 3.72 M122.13 1.45 C134 2.71, 147.56 10.48, 157.74 17.08 C167.93 23.68, 176.88 32.07, 183.25 41.07 C189.63 50.08, 194.39 60.4, 195.98 71.13 C197.57 81.85, 196.25 95.2, 192.8 105.42 C189.36 115.64, 182.67 124.37, 175.31 132.47 C167.95 140.56, 159.36 148.45, 148.64 153.98 C137.92 159.52, 123.63 163.87, 110.98 165.69 C98.33 167.51, 84.63 167.7, 72.74 164.93 C60.85 162.16, 49.48 155.63, 39.62 149.05 C29.76 142.47, 20.19 134.57, 13.58 125.47 C6.97 116.38, 1.77 105.1, -0.04 94.5 C-1.86 83.89, -0.64 72.08, 2.69 61.85 C6.03 51.62, 12.23 41.57, 19.97 33.12 C27.71 24.66, 38.14 16.75, 49.12 11.12 C60.11 5.48, 73.41 0.75, 85.88 -0.68 C98.35 -2.11, 117.8 1.9, 123.95 2.53 C130.1 3.17, 123.52 1.93, 122.8 3.13" stroke="#000000" stroke-width="1" fill="none"></path></g><g transform="translate(608.545654296875 345.36366271972656) rotate(0 86 12.5)"><text x="0" y="18" font-family="Virgil, Segoe UI Emoji" font-size="20px" fill="#000000" text-anchor="start" style="white-space: pre;" direction="ltr">Antivirus scanning</text></g><g stroke-linecap="round"><g transform="translate(530.7273559570312 81.63633728027344) rotate(0 76.13318175700516 95.28906807966064)"><path d="M-0.19 0.28 C25.39 31.99, 128.35 159.31, 154.02 191.2 M-1.76 -0.62 C23.66 30.62, 127.5 157.47, 153.32 189.18" stroke="#000000" stroke-width="1" fill="none"></path></g><g transform="translate(530.7273559570312 81.63633728027344) rotate(0 76.13318175700516 95.28906807966064)"><path d="M128.01 174.63 C136.87 179.63, 146.47 182.69, 151.37 188.64 M128.3 173.58 C135.14 178.43, 142.21 182.06, 153.59 188.73" stroke="#000000" stroke-width="1" fill="none"></path></g><g transform="translate(530.7273559570312 81.63633728027344) rotate(0 76.13318175700516 95.28906807966064)"><path d="M143.9 161.65 C147.39 171.09, 151.53 178.61, 151.37 188.64 M144.19 160.59 C146.7 169.12, 149.33 176.38, 153.59 188.73" stroke="#000000" stroke-width="1" fill="none"></path></g></g><g stroke-linecap="round"><g transform="translate(708.2190829293631 443.6328257157269) rotate(0 1.1265095774029987 31.030617036200738)"><path d="M0.5 0.08 C1.14 10.65, 2.77 52.56, 2.94 62.99 M-0.69 -0.93 C-0.11 9.33, 1.45 50.35, 2.23 61.2" stroke="#000000" stroke-width="1" fill="none"></path></g><g transform="translate(708.2190829293631 443.6328257157269) rotate(0 1.1265095774029987 31.030617036200738)"><path d="M-9.38 34.32 C-5.88 38.27, -3.71 46.5, 3.76 62.87 M-10.13 34.47 C-5.53 43.38, -1.88 52.09, 2.6 61.81" stroke="#000000" stroke-width="1" fill="none"></path></g><g transform="translate(708.2190829293631 443.6328257157269) rotate(0 1.1265095774029987 31.030617036200738)"><path d="M11.11 33.23 C9.91 37.52, 7.38 46, 3.76 62.87 M10.36 33.39 C7.79 42.61, 4.27 51.7, 2.6 61.81" stroke="#000000" stroke-width="1" fill="none"></path></g></g><g transform="translate(653.272705078125 579.5454254150391) rotate(0 56.5 12.5)"><text x="0" y="18" font-family="Virgil, Segoe UI Emoji" font-size="20px" fill="#000000" text-anchor="start" style="white-space: pre;" direction="ltr">Clean file ?</text></g><g stroke-linecap="round" transform="translate(624.9093017578125 504.90907287597656) rotate(0 82.54541015625 88.90908813476562)"><path d="M103.52 22.25 M103.52 22.25 C116.91 37.53, 133.17 54.36, 144.57 66.75 M103.52 22.25 C119.47 39.21, 135.96 56.87, 144.57 66.75 M144.57 66.75 C165.48 89.46, 164.03 88.94, 144.57 111.2 M144.57 66.75 C166.91 88.19, 164.25 90.68, 144.57 111.2 M144.57 111.2 C133.09 122.46, 124.55 134.19, 103.52 155.61 M144.57 111.2 C133.06 124.04, 121.04 137.83, 103.52 155.61 M103.52 155.61 C82.76 178.19, 81.31 176.21, 62.25 155.61 M103.52 155.61 C81.84 176.14, 83.06 176.37, 62.25 155.61 M62.25 155.61 C53.49 144.64, 40.99 133.89, 20.75 111.2 M62.25 155.61 C51.2 145.52, 42.28 133.45, 20.75 111.2 M20.75 111.2 C1.87 90.46, 0.12 90.43, 20.75 66.75 M20.75 111.2 C-1.17 86.81, -1.78 91.16, 20.75 66.75 M20.75 66.75 C37.87 52.04, 51.72 35.13, 62.25 22.25 M20.75 66.75 C29.11 57.37, 38.66 49.17, 62.25 22.25 M62.25 22.25 C82.19 -1.36, 81.98 -1.95, 103.52 22.25 M62.25 22.25 C85.05 1.81, 82.84 1.83, 103.52 22.25" stroke="#000000" stroke-width="1" fill="none"></path></g><g stroke-linecap="round"><g transform="translate(626.727294921875 592.9091033935547) rotate(0 -118.51004016697408 2.426741892537109)"><path d="M-0.22 0.98 C-39.67 1.36, -197.74 2.54, -236.8 3.13 M-1.8 0.45 C-40.88 0.91, -195.87 4.03, -234.69 4.41" stroke="#000000" stroke-width="1" fill="none"></path></g><g transform="translate(626.727294921875 592.9091033935547) rotate(0 -118.51004016697408 2.426741892537109)"><path d="M-205.03 -8.22 C-215.49 -1.47, -221.2 -0.69, -235.18 3.68 M-206.72 -5.77 C-217.7 -2.61, -229.01 1.67, -234.34 4.93" stroke="#000000" stroke-width="1" fill="none"></path></g><g transform="translate(626.727294921875 592.9091033935547) rotate(0 -118.51004016697408 2.426741892537109)"><path d="M-204.71 12.29 C-215.42 13.15, -221.21 8.01, -235.18 3.68 M-206.4 14.75 C-217.32 10, -228.76 6.37, -234.34 4.93" stroke="#000000" stroke-width="1" fill="none"></path></g></g><g transform="translate(496.9091796875 554.8181610107422) rotate(0 17 12.5)"><text x="0" y="18" font-family="Virgil, Segoe UI Emoji" font-size="20px" fill="#000000" text-anchor="start" style="white-space: pre;" direction="ltr">Yes</text></g></svg>